<svg xmlns="http://www.w3.org/2000/svg" xmlns:xlink="http://www.w3.org/1999/xlink" xmlns:lucid="lucid" width="5201.39" height="1660"><g transform="translate(0 0)" lucid:page-tab-id="0_0"><path d="M0 0h5201.4v1660H0z" fill="#fff"/><path d="M1480.04 873.82h240v60h-240z" fill="none"/><use xlink:href="#a" transform="matrix(1,0,0,1,1480.0434375000127,873.818906250007) translate(22.174999999999983 33.6)"/><use xlink:href="#b" transform="matrix(1,0,0,1,1480.0434375000127,873.818906250007) translate(106.87499999999999 33.6)"/><path d="M1967.38 880h240v60h-240z" fill="none"/><use xlink:href="#c" transform="matrix(1,0,0,1,1967.3764127901159,880) translate(6.125000000000014 22.799999999999997)"/><use xlink:href="#d" transform="matrix(1,0,0,1,1967.3764127901159,880) translate(93.07500000000002 22.799999999999997)"/><use xlink:href="#e" transform="matrix(1,0,0,1,1967.3764127901159,880) translate(160.27499999999998 22.799999999999997)"/><use xlink:href="#f" transform="matrix(1,0,0,1,1967.3764127901159,880) translate(175.27499999999998 22.799999999999997)"/><use xlink:href="#g" transform="matrix(1,0,0,1,1967.3764127901159,880) translate(28.375 44.4)"/><use xlink:href="#h" transform="matrix(1,0,0,1,1967.3764127901159,880) translate(91.625 44.4)"/><path d="M980 708c0-4.42 3.58-8 8-8h144c4.42 0 8 3.58 8 8v82c0 4.42-3.58 8-8 8H988c-4.42 0-8-3.58-8-8z" stroke="#333" fill="#fff"/><use xlink:href="#i" transform="matrix(1,0,0,1,988,708) translate(18.88888888888887 33.888888888888886)"/><use xlink:href="#j" transform="matrix(1,0,0,1,988,708) translate(105.35802469135804 33.888888888888886)"/><use xlink:href="#k" transform="matrix(1,0,0,1,988,708) translate(25.01234567901234 55.22222222222222)"/><path d="M1340.36 708c0-4.42 3.58-8 8-8h144c4.4 0 8 3.58 8 8v82c0 4.42-3.6 8-8 8h-144c-4.42 0-8-3.58-8-8z" stroke="#333" fill="#fff"/><use xlink:href="#l" transform="matrix(1,0,0,1,1348.3553053420524,708) translate(15.185185185185183 44.55555555555556)"/><use xlink:href="#m" transform="matrix(1,0,0,1,1348.3553053420524,708) translate(83.03703703703704 44.55555555555556)"/><path d="M379.75 649.75c0 10.9-8.84 19.75-19.75 19.75-10.9 0-19.75-8.84-19.75-19.75 0-10.9 8.84-19.75 19.75-19.75 10.9 0 19.75 8.84 19.75 19.75z" stroke="#333" fill="#fff"/><path d="M360 669.5v47.3c0 4.42 1.92 11.03 4.28 14.76L400 788m-40-63.2L320 788m0-98.75h80" stroke="#333" fill="none"/><path d="M320 638c0-4.42 3.58-8 8-8h64c4.42 0 8 3.58 8 8v164c0 4.42-3.58 8-8 8h-64c-4.42 0-8-3.58-8-8z" fill="none"/><use xlink:href="#n" transform="matrix(1,0,0,1,240,788) translate(92.59259259259258 14.555555555555555)"/><path d="M1779 708c0-4.42 3.58-8 8-8h144c4.42 0 8 3.58 8 8v82c0 4.42-3.58 8-8 8h-144c-4.42 0-8-3.58-8-8z" stroke="#333" fill="#fff"/><use xlink:href="#o" transform="matrix(1,0,0,1,1779,700) translate(54.505 41.9625)"/><use xlink:href="#p" transform="matrix(1,0,0,1,1779,700) translate(31.00499999999999 63.5625)"/><path d="M2235.75 707.47c0-4.42 3.58-8 8-8h144c4.42 0 8 3.58 8 8V788c0 4.42-3.58 8-8 8h-144c-4.42 0-8-3.58-8-8z" stroke="#333" fill="#fff"/><use xlink:href="#q" transform="matrix(1,0,0,1,2235.7528255802317,699.4717441976848) translate(51.404999999999994 41.68125)"/><use xlink:href="#r" transform="matrix(1,0,0,1,2235.7528255802317,699.4717441976848) translate(20.00499999999999 63.28125)"/><path d="M3350.67 708c0-4.42 3.6-8 8-8h121.66c4.4 0 8 3.58 8 8v84c0 4.42-3.6 8-8 8h-121.66c-4.4 0-8-3.58-8-8z" stroke="#333" fill="#fff"/><use xlink:href="#s" transform="matrix(1,0,0,1,3350.673919441274,700) translate(22.07999999999999 55.025)"/><path d="M2849.75 708c0-4.42 3.58-8 8-8h123.5c4.42 0 8 3.58 8 8v84c0 4.42-3.58 8-8 8h-123.5c-4.42 0-8-3.58-8-8z" stroke="#333" fill="#fff"/><use xlink:href="#t" transform="matrix(1,0,0,1,2849.75,700) translate(41.955 55.025)"/><use xlink:href="#u" transform="matrix(1,0,0,1,2849.75,700) translate(88.055 55.025)"/><path d="M2688 788c-27.06 0-49-19.82-49-44.26 0-24.45 21.94-44.27 49-44.27s49 19.82 49 44.27c0 24.44-21.94 44.26-49 44.26z" stroke="#333" fill="#fff"/><path d="M2639 788h98" stroke="#333" fill="none"/><use xlink:href="#v" transform="matrix(1,0,0,1,2599,788) translate(44.85 14.4)"/><path d="M3909.5 800c-27.6 0-50-22.4-50-50s22.4-50 50-50 50 22.4 50 50-22.4 50-50 50z" stroke="#333" fill="#fff"/><path d="M3859.5 800h100" stroke="#333" fill="none"/><use xlink:href="#w" transform="matrix(1,0,0,1,3819.5,800) translate(50.825 14.4)"/><path d="M600 708c0-4.42 3.58-8 8-8h144c4.4 0 8 3.58 8 8v80c0 4.42-3.6 8-8 8H608c-4.42 0-8-3.58-8-8z" stroke="#333" fill="#fff"/><use xlink:href="#x" transform="matrix(1,0,0,1,599.9942784488239,700) translate(15.080000000000007 50.4)"/><path d="M340 848c0-4.42 3.58-8 8-8h24c4.42 0 8 3.58 8 8v384c0 4.42-3.58 8-8 8h-24c-4.42 0-8-3.58-8-8zM660 868c0-4.42 3.6-8 8-8h24c4.42 0 8 3.58 8 8v366c0 4.42-3.58 8-8 8h-24c-4.4 0-8-3.58-8-8zM1040 868c0-4.42 3.58-8 8-8h24c4.42 0 8 3.58 8 8v364c0 4.42-3.58 8-8 8h-24c-4.42 0-8-3.58-8-8zM1400 868c0-4.42 3.58-8 8-8h24c4.42 0 8 3.58 8 8v364c0 4.42-3.58 8-8 8h-24c-4.42 0-8-3.58-8-8zM1839 868c0-4.42 3.58-8 8-8h24c4.42 0 8 3.58 8 8v364c0 4.42-3.58 8-8 8h-24c-4.42 0-8-3.58-8-8zM2295.75 868c0-4.42 3.58-8 8-8h24c4.42 0 8 3.58 8 8v201.47c0 4.42-3.58 8-8 8h-24c-4.42 0-8-3.58-8-8zM2900 868c0-4.42 3.58-8 8-8h24c4.42 0 8 3.58 8 8v336c0 4.42-3.58 8-8 8h-24c-4.42 0-8-3.58-8-8zM3400 870c0-4.42 3.58-8 8-8h24c4.42 0 8 3.58 8 8v342c0 4.42-3.58 8-8 8h-24c-4.42 0-8-3.58-8-8zM2668 868c0-4.42 3.58-8 8-8h24c4.42 0 8 3.58 8 8v156c0 4.42-3.58 8-8 8h-24c-4.42 0-8-3.58-8-8zM3889.5 870c0-4.42 3.58-8 8-8h24c4.42 0 8 3.58 8 8v342c0 4.42-3.58 8-8 8h-24c-4.42 0-8-3.58-8-8z" stroke="#333" fill="#fff"/><path d="M659 957.07v1H536.48v-1m-139.6-1v-1h106.65v1M659.5 958.07h-.5v-1h.5M396.38 960.2l-14.26-4.63 14.26-4.63z" fill="#333"/><path d="M396.88 960.9l-16.38-5.33 16.38-5.32m-13.14 5.32l12.14 3.95v-7.9" fill="#333"/><use xlink:href="#y" transform="matrix(1,0,0,1,503.52678798474255,945.7721153846157) translate(0.004999999999999005 14.4)"/><path d="M381 1140h138c.55 0 1 .45 1 1s.45 1 1 1h122.12" stroke="#333" fill="none"/><path d="M381 1140.5h-.5v-1h.5" fill="#333"/><path d="M657.9 1142l-14.28 4.64v-9.28z" stroke="#333" fill="#333"/><path d="M701 1162h168c.55 0 1-.45 1-1s.45-1 1-1h152.12" stroke="#333" fill="none"/><path d="M701.02 1162.5h-.52v-1h.52" fill="#333"/><path d="M1037.88 1160l-14.26 4.64v-9.28z" stroke="#333" fill="#333"/><path d="M1081 1160h302.12" stroke="#333" fill="none"/><path d="M1081 1160.5h-.5v-1h.5" fill="#333"/><path d="M1397.88 1160l-14.26 4.64v-9.28z" stroke="#333" fill="#333"/><path d="M1441 1160h381.12" stroke="#333" fill="none"/><path d="M1441 1160.5h-.5v-1h.5" fill="#333"/><path d="M1836.88 1160l-14.26 4.64v-9.28z" stroke="#333" fill="#333"/><path d="M1880 1207.18h497.5c6.63 0 12-5.37 12-12v-24c0-6.62 5.37-12 12-12h481.62" stroke="#333" fill="none"/><path d="M1880 1207.68h-.5v-1h.5" fill="#333"/><path d="M2897.88 1159.18l-14.26 4.64v-9.27z" stroke="#333" fill="#333"/><path d="M2941 912h442.12" stroke="#333" fill="none"/><path d="M2941 912.5h-.5v-1h.5" fill="#333"/><path d="M3397.88 912l-14.26 4.64v-9.28z" stroke="#333" fill="#333"/><path d="M3441 912h218.75c2.76 0 5 2.24 5 5s2.24 5 5 5h202.87" stroke="#333" fill="none"/><path d="M3441 912.5h-.5v-1h.5" fill="#333"/><path d="M3887.38 922l-14.26 4.64v-9.28z" stroke="#333" fill="#333"/><path d="M764.48 848c0-4.42 3.6-8 8-8h184c4.42 0 8 3.58 8 8v44c0 4.42-3.58 8-8 8h-184c-4.4 0-8-3.58-8-8z" stroke="#000" stroke-opacity="0" fill="#fff" fill-opacity="0"/><use xlink:href="#z" transform="matrix(1,0,0,1,769.4836879544767,845) translate(54.025 14.4)"/><use xlink:href="#A" transform="matrix(1,0,0,1,769.4836879544767,845) translate(39.52499999999999 36)"/><use xlink:href="#B" transform="matrix(1,0,0,1,769.4836879544767,845) translate(36.225 57.6)"/><path d="M684.5 797v5.17m0 5.16v10.34m0 5.16v10.34m0 5.16v10.34m0 5.16V859" stroke="#333" fill="none"/><path d="M685 797h-1v-.5h1M685 859.5h-1v-.5h1" fill="#333"/><path d="M1420.36 799v5m0 5v10m0 5v10m0 5v10m0 5v5" stroke="#333" fill="none"/><path d="M1420.86 799h-1v-.5h1M1420.86 859.5h-1v-.5h1" fill="#333"/><path d="M1859 799v5m0 5v10m0 5v10m0 5v10m0 5v5" stroke="#333" fill="none"/><path d="M1859.5 799h-1v-.5h1M1859.5 859.5h-1v-.5h1" fill="#333"/><path d="M1059.52 799v5m0 5v10m0 5v10m0 5v10m0 5v5" stroke="#333" fill="none"/><path d="M1060.02 799h-1v-.5h1M1060.02 859.5h-1v-.5h1" fill="#333"/><path d="M363.27 731.17v5.14m0 5.14v10.27m0 5.14v10.27m0 5.15v10.27m0 5.13v10.27m0 5.14v10.27m0 5.13v10.27m0 5.14V839M363.27 731.18v-3.5" stroke="#333" fill="none"/><path d="M363.77 839.5h-1v-.5h1" fill="#333"/><path d="M2315.75 797v5.17m0 5.16v10.34m0 5.16v10.34m0 5.16v10.34m0 5.16V859" stroke="#333" fill="none"/><path d="M2316.25 797h-1v-.5h1M2316.25 859.5h-1v-.5h1" fill="#333"/><path d="M2919.5 801v4.8m0 4.78v9.6m0 4.78v4.8l.07.17.18.07.18.07.07.18v4.8m0 4.78v9.6m0 4.78v4.8" stroke="#333" fill="none"/><path d="M2920 801h-1v-.5h1M2920.5 859.5h-1v-.5h1" fill="#333"/><path d="M3419.5 801v4.96m0 4.96v9.9m0 4.97v4.95l.07.18.18.07.18.07.07.18v4.96m0 4.97v9.9m0 4.97V861" stroke="#333" fill="none"/><path d="M3420 801h-1v-.5h1" fill="#333"/><path d="M3420 861v.5M3909.5 801v5m0 5v10m0 5v10m0 5v10m0 5v5" stroke="#333" fill="none"/><path d="M3909.5 800.5h.5v.5h-1v-.5" fill="#333"/><path d="M3909.5 861v.5M979.5 749" stroke="#333" fill="none"/><path fill="#333"/><path fill="#333"/><path d="M2336.75 940H2667" stroke="#333" fill="none"/><path d="M2336.77 940.5h-.52v-1h.52M2667.5 940.5h-.5v-1h.5" fill="#333"/><g><use xlink:href="#C" transform="matrix(1,0,0,1,2423.851412790116,914.4) translate(0.0049999999999954525 14.4)"/><use xlink:href="#D" transform="matrix(1,0,0,1,2423.851412790116,914.4) translate(92.50500000000001 14.4)"/></g><path d="M1120 873.82h240v60h-240z" fill="none"/><g><use xlink:href="#a" transform="matrix(1,0,0,1,1120,873.818906250007) translate(22.174999999999983 33.6)"/><use xlink:href="#b" transform="matrix(1,0,0,1,1120,873.818906250007) translate(106.87499999999999 33.6)"/></g><defs><path fill="#333" d="M140-251c81 0 123 46 123 126C263-46 219 4 140 4 59 4 17-45 17-125s42-126 123-126zm0 227c63 0 89-41 89-101s-29-99-89-99c-61 0-89 39-89 99S79-25 140-24" id="E"/><path fill="#333" d="M6-190h153v23H98V0H67v-167H6v-23" id="F"/><path fill="#333" d="M170-190V0h-32v-167H57V0H25v-190h145" id="G"/><path fill="#333" d="M115-194c55 1 70 41 70 98S169 2 115 4C84 4 66-9 55-30l1 105H24l-1-265h31l2 30c10-21 28-34 59-34zm-8 174c40 0 45-34 45-75s-6-73-45-74c-42 0-51 32-51 76 0 43 10 73 51 73" id="H"/><path fill="#333" d="M141-36C126-15 110 5 73 4 37 3 15-17 15-53c-1-64 63-63 125-63 3-35-9-54-41-54-24 1-41 7-42 31l-33-3c5-37 33-52 76-52 45 0 72 20 72 64v82c-1 20 7 32 28 27v20c-31 9-61-2-59-35zM48-53c0 20 12 33 32 33 41-3 63-29 60-74-43 2-92-5-92 41" id="I"/><path fill="#333" d="M176-55C176 11 93 0 25 0v-190c61 3 142-15 144 47 1 29-21 35-39 44 27 3 46 16 46 44zm-34 0c0-41-47-30-85-32v64c38-1 85 8 85-32zm-6-83c0-36-44-26-79-28v56c34-2 79 8 79-28" id="J"/><path fill="#333" d="M75-87c-4 1-14 3-19 3V0H24v-190h32v83c26-2 31-21 43-41l26-42h33l-61 86L159 0h-35" id="K"/><g id="a"><use transform="matrix(0.05,0,0,0.05,0,0)" xlink:href="#E"/><use transform="matrix(0.05,0,0,0.05,14,0)" xlink:href="#F"/><use transform="matrix(0.05,0,0,0.05,22.200000000000003,0)" xlink:href="#G"/><use transform="matrix(0.05,0,0,0.05,31.900000000000006,0)" xlink:href="#H"/><use transform="matrix(0.05,0,0,0.05,41.900000000000006,0)" xlink:href="#I"/><use transform="matrix(0.05,0,0,0.05,51.900000000000006,0)" xlink:href="#J"/><use transform="matrix(0.05,0,0,0.05,61.45,0)" xlink:href="#K"/><use transform="matrix(0.05,0,0,0.05,69.7,0)" xlink:href="#I"/></g><path fill="#333" d="M179-190L93 31C79 59 56 82 12 73V49c39 6 53-20 64-50L1-190h34L92-34l54-156h33" id="L"/><path fill="#333" d="M100-194c63 0 86 42 84 106H49c0 40 14 67 53 68 26 1 43-12 49-29l28 8c-11 28-37 45-77 45C44 4 14-33 15-96c1-61 26-98 85-98zm52 81c6-60-76-77-97-28-3 7-6 17-6 28h103" id="M"/><path fill="#333" d="M147-167H93C83-118 77-63 59-23h88v-144zM24-23c26-44 31-102 41-167h113v167h26v95h-29V0H32v72H4v-95h20" id="N"/><path fill="#333" d="M100-194c62-1 85 37 85 99 1 63-27 99-86 99S16-35 15-95c0-66 28-99 85-99zM99-20c44 1 53-31 53-75 0-43-8-75-51-75s-53 32-53 75 10 74 51 75" id="O"/><path fill="#333" d="M138 0h-27L54-167c3 53 2 111 2 167H25v-190h49c16 56 39 106 51 166 11-61 34-110 50-166h48V0h-31l2-168" id="P"/><path fill="#333" d="M153 0v-167H87C74-108 81-27 38 0 29 5 12 6 2 1v-22c51 4 39-64 49-112 5-25 4-25 8-57h126V0h-32" id="Q"/><path fill="#333" d="M57-190v80h85v-80h32V0h-32v-87H57V0H25v-190h32" id="R"/><path fill="#333" d="M56-190L54-37l88-153h34V0h-30l2-153L59 0H25v-190h31" id="S"/><path fill="#333" d="M20-138c-1-64 85-51 150-52V0h-32v-81H94L39 0H3l60-83c-28-5-43-24-43-55zm33 3c0 40 46 33 85 33v-66c-39 0-85-6-85 33" id="T"/><g id="b"><use transform="matrix(0.05,0,0,0.05,0,0)" xlink:href="#L"/><use transform="matrix(0.05,0,0,0.05,9,0)" xlink:href="#J"/><use transform="matrix(0.05,0,0,0.05,18.35,0)" xlink:href="#M"/><use transform="matrix(0.05,0,0,0.05,27.950000000000003,0)" xlink:href="#N"/><use transform="matrix(0.05,0,0,0.05,38.45,0)" xlink:href="#O"/><use transform="matrix(0.05,0,0,0.05,48.45,0)" xlink:href="#P"/><use transform="matrix(0.05,0,0,0.05,60.800000000000004,0)" xlink:href="#Q"/><use transform="matrix(0.05,0,0,0.05,71.30000000000001,0)" xlink:href="#M"/><use transform="matrix(0.05,0,0,0.05,81.30000000000001,0)" xlink:href="#R"/><use transform="matrix(0.05,0,0,0.05,91.20000000000002,0)" xlink:href="#S"/><use transform="matrix(0.05,0,0,0.05,101.25000000000001,0)" xlink:href="#T"/></g><path fill="#333" d="M197 0v-219H63V0H30v-248h201V0h-34" id="U"/><path fill="#333" d="M131-81C94-61 21-56 21-118v-72h32c4 39-16 99 29 99 19 0 33-5 49-8v-91h31V0h-31v-81" id="V"/><g id="c"><use transform="matrix(0.05,0,0,0.05,0,0)" xlink:href="#U"/><use transform="matrix(0.05,0,0,0.05,12.9,0)" xlink:href="#M"/><use transform="matrix(0.05,0,0,0.05,22.9,0)" xlink:href="#H"/><use transform="matrix(0.05,0,0,0.05,32.9,0)" xlink:href="#M"/><use transform="matrix(0.05,0,0,0.05,42.5,0)" xlink:href="#N"/><use transform="matrix(0.05,0,0,0.05,53,0)" xlink:href="#I"/><use transform="matrix(0.05,0,0,0.05,62.6,0)" xlink:href="#V"/><use transform="matrix(0.05,0,0,0.05,71.95,0)" xlink:href="#I"/></g><path fill="#333" d="M170-56C169 10 92 0 25 0v-190h32v80c58-2 114-1 113 54zm-34 0c0-38-42-32-79-32v66c38 0 79 5 79-34zm66 56v-190h32V0h-32" id="W"/><path fill="#333" d="M141 0L90-78 38 0H4l68-98-65-92h35l48 74 47-74h35l-64 92 68 98h-35" id="X"/><g id="d"><use transform="matrix(0.05,0,0,0.05,0,0)" xlink:href="#N"/><use transform="matrix(0.05,0,0,0.05,10.5,0)" xlink:href="#I"/><use transform="matrix(0.05,0,0,0.05,20.5,0)" xlink:href="#R"/><use transform="matrix(0.05,0,0,0.05,30.399999999999995,0)" xlink:href="#R"/><use transform="matrix(0.05,0,0,0.05,40.3,0)" xlink:href="#W"/><use transform="matrix(0.05,0,0,0.05,53.19999999999999,0)" xlink:href="#X"/></g><use transform="matrix(0.05,0,0,0.05,0,0)" xlink:href="#O" id="e"/><path fill="#333" d="M152-53C154 19 21 22 9-41l28-8c5 36 84 42 81-4-1-29-28-34-58-35v-24c28 0 55-4 55-30 0-19-14-29-34-28-20 0-35 7-38 25l-28-3c4-33 30-46 66-46 37 0 66 15 66 50 0 27-20 41-44 44 27 5 48 17 49 47" id="Y"/><g id="f"><use transform="matrix(0.05,0,0,0.05,0,0)" xlink:href="#R"/><use transform="matrix(0.05,0,0,0.05,9.9,0)" xlink:href="#S"/><use transform="matrix(0.05,0,0,0.05,19.950000000000003,0)" xlink:href="#Y"/><use transform="matrix(0.05,0,0,0.05,28.200000000000003,0)" xlink:href="#K"/><use transform="matrix(0.05,0,0,0.05,36.25,0)" xlink:href="#O"/><use transform="matrix(0.05,0,0,0.05,46.25,0)" xlink:href="#P"/></g><g id="g"><use transform="matrix(0.05,0,0,0.05,0,0)" xlink:href="#L"/><use transform="matrix(0.05,0,0,0.05,8.8,0)" xlink:href="#H"/><use transform="matrix(0.05,0,0,0.05,18.8,0)" xlink:href="#O"/><use transform="matrix(0.05,0,0,0.05,28.8,0)" xlink:href="#J"/><use transform="matrix(0.05,0,0,0.05,38.35,0)" xlink:href="#R"/><use transform="matrix(0.05,0,0,0.05,48.25,0)" xlink:href="#M"/></g><path fill="#333" d="M96-169c-40 0-48 33-48 73s9 75 48 75c24 0 41-14 43-38l32 2c-6 37-31 61-74 61-59 0-76-41-82-99-10-93 101-131 147-64 4 7 5 14 7 22l-32 3c-4-21-16-35-41-35" id="Z"/><path fill="#333" d="M25 0v-190h32v167h71v-167h31v167h71v-167h32v167h26v95h-29V0H25" id="aa"/><g id="h"><use transform="matrix(0.05,0,0,0.05,0,0)" xlink:href="#O"/><use transform="matrix(0.05,0,0,0.05,10,0)" xlink:href="#Z"/><use transform="matrix(0.05,0,0,0.05,19,0)" xlink:href="#J"/><use transform="matrix(0.05,0,0,0.05,28.35,0)" xlink:href="#M"/><use transform="matrix(0.05,0,0,0.05,38.35,0)" xlink:href="#aa"/><use transform="matrix(0.05,0,0,0.05,52.95,0)" xlink:href="#M"/><use transform="matrix(0.05,0,0,0.05,62.95,0)" xlink:href="#R"/><use transform="matrix(0.05,0,0,0.05,72.85000000000001,0)" xlink:href="#R"/><use transform="matrix(0.05,0,0,0.05,82.75000000000001,0)" xlink:href="#O"/><use transform="matrix(0.05,0,0,0.05,92.75000000000001,0)" xlink:href="#Z"/><use transform="matrix(0.05,0,0,0.05,101.75000000000001,0)" xlink:href="#F"/><use transform="matrix(0.05,0,0,0.05,109.95,0)" xlink:href="#S"/></g><path fill="#333" d="M105-20c41 1 53-27 53-68 0-40-9-69-50-69s-54 27-54 69c0 40 12 68 51 68zM47-134c10-28 31-47 68-47 56 0 76 33 76 92 1 60-28 90-86 93C-9 9 1-201 72-238c29-15 73-21 110-26v28c-67 12-144 10-135 102" id="ab"/><g id="i"><use transform="matrix(0.04938271604938272,0,0,0.04938271604938272,0,0)" xlink:href="#E"/><use transform="matrix(0.04938271604938272,0,0,0.04938271604938272,13.827160493827162,0)" xlink:href="#ab"/><use transform="matrix(0.04938271604938272,0,0,0.04938271604938272,23.20987654320988,0)" xlink:href="#Q"/><use transform="matrix(0.04938271604938272,0,0,0.04938271604938272,33.580246913580254,0)" xlink:href="#I"/><use transform="matrix(0.04938271604938272,0,0,0.04938271604938272,43.061728395061735,0)" xlink:href="#V"/><use transform="matrix(0.04938271604938272,0,0,0.04938271604938272,52.2962962962963,0)" xlink:href="#R"/><use transform="matrix(0.04938271604938272,0,0,0.04938271604938272,62.074074074074076,0)" xlink:href="#I"/><use transform="matrix(0.04938271604938272,0,0,0.04938271604938272,71.95061728395063,0)" xlink:href="#T"/><path fill="#333" d="M-.9 1.23h88.26v1.3H-.9z"/></g><path fill="#333" d="M33 0v-248h34V0H33" id="ac"/><path fill="#333" d="M100-194c62-1 85 37 85 99 1 63-27 99-86 99S16-35 15-95c0-66 28-99 85-99zM99-20c44 1 53-31 53-75 0-43-8-75-51-75s-53 32-53 75 10 74 51 75" id="ad"/><path fill="#333" d="M59-47c-2 24 18 29 38 22v24C64 9 27 4 27-40v-127H5v-23h24l9-43h21v43h35v23H59v120" id="ae"/><g id="j"><use transform="matrix(0.04938271604938272,0,0,0.04938271604938272,0,0)" xlink:href="#ac"/><use transform="matrix(0.04938271604938272,0,0,0.04938271604938272,4.938271604938272,0)" xlink:href="#ad"/><use transform="matrix(0.04938271604938272,0,0,0.04938271604938272,14.814814814814817,0)" xlink:href="#ae"/><path fill="#333" d="M-.9 1.23h21.54v1.3H-.9z"/></g><path fill="#333" d="M217-194c52 0 64 44 64 98S268 2 217 4c-29 1-44-13-55-34l1 105h-30V-31C124-8 108 4 79 4 29 4 16-37 15-94c0-57 15-98 64-100 29 0 44 14 55 33l-1-100h30v101c10-23 24-34 54-34zM89-170c-37 1-41 36-41 75 0 37 3 74 40 74 39 0 45-35 45-76-1-39-6-73-44-73zM207-20c38 0 41-36 41-75 0-38-3-74-40-74-41 0-45 36-45 80 1 38 7 69 44 69" id="af"/><g id="k"><use transform="matrix(0.04938271604938272,0,0,0.04938271604938272,0,0)" xlink:href="#G"/><use transform="matrix(0.04938271604938272,0,0,0.04938271604938272,9.580246913580249,0)" xlink:href="#Q"/><use transform="matrix(0.04938271604938272,0,0,0.04938271604938272,19.95061728395062,0)" xlink:href="#I"/><use transform="matrix(0.04938271604938272,0,0,0.04938271604938272,29.4320987654321,0)" xlink:href="#F"/><use transform="matrix(0.04938271604938272,0,0,0.04938271604938272,37.53086419753087,0)" xlink:href="#af"/><use transform="matrix(0.04938271604938272,0,0,0.04938271604938272,52.14814814814815,0)" xlink:href="#O"/><use transform="matrix(0.04938271604938272,0,0,0.04938271604938272,62.0246913580247,0)" xlink:href="#H"/><use transform="matrix(0.04938271604938272,0,0,0.04938271604938272,71.90123456790124,0)" xlink:href="#P"/><use transform="matrix(0.04938271604938272,0,0,0.04938271604938272,84.09876543209877,0)" xlink:href="#I"/><path fill="#333" d="M-.9 1.23h95.76v1.3H-.9z"/></g><path fill="#333" d="M240 0l2-218c-23 76-54 145-80 218h-23L58-218 59 0H30v-248h44l77 211c21-75 51-140 76-211h43V0h-30" id="ag"/><path fill="#333" d="M173-56C173 11 92 0 25 0v-190h32v80c58-2 117-2 116 54zm-34 0c0-39-44-31-82-32v66c39 0 82 6 82-34" id="ah"/><g id="l"><use transform="matrix(0.04938271604938272,0,0,0.04938271604938272,0,0)" xlink:href="#ag"/><use transform="matrix(0.04938271604938272,0,0,0.04938271604938272,14.962962962962964,0)" xlink:href="#O"/><use transform="matrix(0.04938271604938272,0,0,0.04938271604938272,24.44444444444445,0)" xlink:href="#N"/><use transform="matrix(0.04938271604938272,0,0,0.04938271604938272,34.814814814814824,0)" xlink:href="#L"/><use transform="matrix(0.04938271604938272,0,0,0.04938271604938272,43.308641975308646,0)" xlink:href="#Q"/><use transform="matrix(0.04938271604938272,0,0,0.04938271604938272,53.67901234567902,0)" xlink:href="#ah"/><path fill="#333" d="M-.9 1.23h69.64v1.3H-.9z"/></g><g id="m"><use transform="matrix(0.04938271604938272,0,0,0.04938271604938272,0,0)" xlink:href="#Z"/><use transform="matrix(0.04938271604938272,0,0,0.04938271604938272,8.88888888888889,0)" xlink:href="#J"/><use transform="matrix(0.04938271604938272,0,0,0.04938271604938272,18.123456790123456,0)" xlink:href="#T"/><use transform="matrix(0.04938271604938272,0,0,0.04938271604938272,27.7037037037037,0)" xlink:href="#Y"/><use transform="matrix(0.04938271604938272,0,0,0.04938271604938272,35.85185185185185,0)" xlink:href="#S"/><path fill="#333" d="M-.9 1.23h47.57v1.3H-.9z"/></g><path fill="#333" d="M187 0l-14-72H61L19 0h-37l149-248h38L221 0h-34zm-19-99l-22-123L76-99h92" id="ai"/><path fill="#333" d="M129-128c22-16 2-41-27-41-26 0-40 8-47 26l-26-8c8-55 142-64 140 5-2 65-92 46-125 84-13 24 8 42 36 41 26-1 44-8 51-28l25 10C147 18 6 23 8-47c1-64 83-53 121-81" id="aj"/><path fill="#333" d="M111-194c62-3 86 47 72 106H45c-7 38 6 69 45 68 27-1 43-14 53-32l24 11C152-15 129 4 87 4 38 3 12-23 12-71c0-70 32-119 99-123zm44 81c14-66-71-72-95-28-4 8-8 17-11 28h106" id="ak"/><path fill="#333" d="M75-190l-16 80h85l15-80h32L154 0h-31l16-87H54L38 0H6l37-190h32" id="al"/><path fill="#333" d="M248-111c6-24 9-61-24-58-72 9-57 108-77 169h-31l26-142c3-37-50-30-64-10C52-115 50-51 37 0H6l36-190h30c-1 10-6 24-4 32 13-43 101-52 105 5 13-22 29-41 61-41 90 0 28 129 23 194h-31" id="am"/><g id="n"><use transform="matrix(0.04938271604938272,0,0,0.04938271604938272,0,0)" xlink:href="#ai"/><use transform="matrix(0.04938271604938272,0,0,0.04938271604938272,11.851851851851853,0)" xlink:href="#aj"/><use transform="matrix(0.04938271604938272,0,0,0.04938271604938272,20.395061728395063,0)" xlink:href="#ak"/><use transform="matrix(0.04938271604938272,0,0,0.04938271604938272,30.271604938271608,0)" xlink:href="#al"/><use transform="matrix(0.04938271604938272,0,0,0.04938271604938272,40.04938271604939,0)" xlink:href="#am"/></g><path d="M197 0v-219H63V0H30v-248h201V0h-34" id="an"/><path d="M153 0v-167H87C74-108 81-27 38 0 29 5 12 6 2 1v-22c51 4 39-64 49-112 5-25 4-25 8-57h126V0h-32" id="ao"/><path d="M141-36C126-15 110 5 73 4 37 3 15-17 15-53c-1-64 63-63 125-63 3-35-9-54-41-54-24 1-41 7-42 31l-33-3c5-37 33-52 76-52 45 0 72 20 72 64v82c-1 20 7 32 28 27v20c-31 9-61-2-59-35zM48-53c0 20 12 33 32 33 41-3 63-29 60-74-43 2-92-5-92 41" id="ap"/><path d="M6-190h153v23H98V0H67v-167H6v-23" id="aq"/><g id="o"><use transform="matrix(0.05,0,0,0.05,0,0)" xlink:href="#an"/><use transform="matrix(0.05,0,0,0.05,12.9,0)" xlink:href="#ao"/><use transform="matrix(0.05,0,0,0.05,23.4,0)" xlink:href="#ap"/><use transform="matrix(0.05,0,0,0.05,33,0)" xlink:href="#aq"/><use transform="matrix(0.05,0,0,0.05,41,0)" xlink:href="#ap"/><path d="M-.9 1.25h52.8v1.32H-.9z"/></g><path d="M179-190L93 31C79 59 56 82 12 73V49c39 6 53-20 64-50L1-190h34L92-34l54-156h33" id="ar"/><path d="M170-190V0h-32v-167H57V0H25v-190h145" id="as"/><path d="M115-194c55 1 70 41 70 98S169 2 115 4C84 4 66-9 55-30l1 105H24l-1-265h31l2 30c10-21 28-34 59-34zm-8 174c40 0 45-34 45-75s-6-73-45-74c-42 0-51 32-51 76 0 43 10 73 51 73" id="at"/><path d="M176-55C176 11 93 0 25 0v-190c61 3 142-15 144 47 1 29-21 35-39 44 27 3 46 16 46 44zm-34 0c0-41-47-30-85-32v64c38-1 85 8 85-32zm-6-83c0-36-44-26-79-28v56c34-2 79 8 79-28" id="au"/><path d="M100-194c63 0 86 42 84 106H49c0 40 14 67 53 68 26 1 43-12 49-29l28 8c-11 28-37 45-77 45C44 4 14-33 15-96c1-61 26-98 85-98zm52 81c6-60-76-77-97-28-3 7-6 17-6 28h103" id="av"/><path d="M57-190v80h85v-80h32V0h-32v-87H57V0H25v-190h32" id="aw"/><path d="M56-190L54-37l88-153h34V0h-30l2-153L59 0H25v-190h31" id="ax"/><path d="M20-138c-1-64 85-51 150-52V0h-32v-81H94L39 0H3l60-83c-28-5-43-24-43-55zm33 3c0 40 46 33 85 33v-66c-39 0-85-6-85 33" id="ay"/><g id="p"><use transform="matrix(0.05,0,0,0.05,0,0)" xlink:href="#ar"/><use transform="matrix(0.05,0,0,0.05,9,0)" xlink:href="#as"/><use transform="matrix(0.05,0,0,0.05,18.700000000000003,0)" xlink:href="#at"/><use transform="matrix(0.05,0,0,0.05,28.700000000000003,0)" xlink:href="#ap"/><use transform="matrix(0.05,0,0,0.05,38.7,0)" xlink:href="#au"/><use transform="matrix(0.05,0,0,0.05,47.85000000000001,0)" xlink:href="#ao"/><use transform="matrix(0.05,0,0,0.05,58.35,0)" xlink:href="#av"/><use transform="matrix(0.05,0,0,0.05,68.35000000000001,0)" xlink:href="#aw"/><use transform="matrix(0.05,0,0,0.05,78.25000000000001,0)" xlink:href="#ax"/><use transform="matrix(0.05,0,0,0.05,88.30000000000001,0)" xlink:href="#ay"/><path d="M-.9 1.25h99.8v1.32H-.9z"/></g><path d="M206-28h31V72h-32V0H34v72H3V-28h25c38-50 38-143 51-220h127v220zm-32 0v-192h-66C95-156 94-78 66-28h108" id="az"/><path d="M131-81C94-61 21-56 21-118v-72h32c4 39-16 99 29 99 19 0 33-5 49-8v-91h31V0h-31v-81" id="aA"/><path d="M75-87c-4 1-14 3-19 3V0H24v-190h32v83c26-2 31-21 43-41l26-42h33l-61 86L159 0h-35" id="aB"/><g id="q"><use transform="matrix(0.05,0,0,0.05,0,0)" xlink:href="#az"/><use transform="matrix(0.05,0,0,0.05,12.15,0)" xlink:href="#ap"/><use transform="matrix(0.05,0,0,0.05,21.75,0)" xlink:href="#aq"/><use transform="matrix(0.05,0,0,0.05,29.950000000000003,0)" xlink:href="#aA"/><use transform="matrix(0.05,0,0,0.05,39.300000000000004,0)" xlink:href="#ax"/><use transform="matrix(0.05,0,0,0.05,49.35000000000001,0)" xlink:href="#aB"/><path d="M-.9 1.25h59v1.32h-59z"/></g><path d="M100-194c62-1 85 37 85 99 1 63-27 99-86 99S16-35 15-95c0-66 28-99 85-99zM99-20c44 1 53-31 53-75 0-43-8-75-51-75s-53 32-53 75 10 74 51 75" id="aC"/><path d="M96-169c-40 0-48 33-48 73s9 75 48 75c24 0 41-14 43-38l32 2c-6 37-31 61-74 61-59 0-76-41-82-99-10-93 101-131 147-64 4 7 5 14 7 22l-32 3c-4-21-16-35-41-35" id="aD"/><path d="M25 0v-190h32v167h71v-167h31v167h71v-167h32v167h26v95h-29V0H25" id="aE"/><g id="r"><use transform="matrix(0.05,0,0,0.05,0,0)" xlink:href="#aC"/><use transform="matrix(0.05,0,0,0.05,10,0)" xlink:href="#aD"/><use transform="matrix(0.05,0,0,0.05,19,0)" xlink:href="#au"/><use transform="matrix(0.05,0,0,0.05,28.35,0)" xlink:href="#av"/><use transform="matrix(0.05,0,0,0.05,38.35,0)" xlink:href="#aE"/><use transform="matrix(0.05,0,0,0.05,52.95,0)" xlink:href="#av"/><use transform="matrix(0.05,0,0,0.05,62.95,0)" xlink:href="#aw"/><use transform="matrix(0.05,0,0,0.05,72.85000000000001,0)" xlink:href="#aw"/><use transform="matrix(0.05,0,0,0.05,82.75000000000001,0)" xlink:href="#aC"/><use transform="matrix(0.05,0,0,0.05,92.75000000000001,0)" xlink:href="#aD"/><use transform="matrix(0.05,0,0,0.05,101.75000000000001,0)" xlink:href="#aq"/><use transform="matrix(0.05,0,0,0.05,109.95,0)" xlink:href="#ax"/><path d="M-.9 1.25h121.8v1.32H-.9z"/></g><path d="M154-217c63-1 99 29 99 88s-35 93-99 91V2h-34v-40c-64 1-99-31-99-91s36-90 99-88v-32h34v32zm0 155c44 0 65-24 65-67s-22-64-65-64v131zm-34-131c-43-1-67 20-66 64 0 43 22 67 66 67v-131" id="aF"/><path d="M138 0h-27L54-167c3 53 2 111 2 167H25v-190h49c16 56 39 106 51 166 11-61 34-110 50-166h48V0h-31l2-168" id="aG"/><g id="s"><use transform="matrix(0.05,0,0,0.05,0,0)" xlink:href="#aF"/><use transform="matrix(0.05,0,0,0.05,13.65,0)" xlink:href="#ax"/><use transform="matrix(0.05,0,0,0.05,23.700000000000003,0)" xlink:href="#aq"/><use transform="matrix(0.05,0,0,0.05,31.700000000000003,0)" xlink:href="#aC"/><use transform="matrix(0.05,0,0,0.05,41.300000000000004,0)" xlink:href="#ao"/><use transform="matrix(0.05,0,0,0.05,51.800000000000004,0)" xlink:href="#ap"/><use transform="matrix(0.05,0,0,0.05,61.800000000000004,0)" xlink:href="#aG"/><use transform="matrix(0.05,0,0,0.05,74.15,0)" xlink:href="#as"/><use transform="matrix(0.05,0,0,0.05,83.85000000000001,0)" xlink:href="#ap"/><path d="M-.9 1.25h95.65v1.32H-.9z"/></g><path d="M30-248c87 1 191-15 191 75 0 78-77 80-158 76V0H30v-248zm33 125c57 0 124 11 124-50 0-59-68-47-124-48v98" id="aH"/><g id="t"><use transform="matrix(0.05,0,0,0.05,0,0)" xlink:href="#aH"/><use transform="matrix(0.05,0,0,0.05,11.2,0)" xlink:href="#av"/><use transform="matrix(0.05,0,0,0.05,20.6,0)" xlink:href="#ao"/><use transform="matrix(0.05,0,0,0.05,31.1,0)" xlink:href="#av"/><path d="M-.9 1.25H47v1.32H-.9z"/></g><path d="M101-251c82-7 93 87 43 132L82-64C71-53 59-42 53-27h129V0H18c2-99 128-94 128-182 0-28-16-43-45-43s-46 15-49 41l-32-3c6-41 34-60 81-64" id="aI"/><g id="u"><use transform="matrix(0.05,0,0,0.05,0,0)" xlink:href="#aI"/><path d="M-.9 1.25h11.8v1.32H-.9z"/></g><path fill="#333" d="M212-179c-10-28-35-45-73-45-59 0-87 40-87 99 0 60 29 101 89 101 43 0 62-24 78-52l27 14C228-24 195 4 139 4 59 4 22-46 18-125c-6-104 99-153 187-111 19 9 31 26 39 46" id="aJ"/><path fill="#333" d="M25 0v-190h32v167h72v-167h31v167h72v-167h32V0H25" id="aK"/><g id="v"><use transform="matrix(0.05,0,0,0.05,0,0)" xlink:href="#aJ"/><use transform="matrix(0.05,0,0,0.05,12.950000000000001,0)" xlink:href="#O"/><use transform="matrix(0.05,0,0,0.05,22.55,0)" xlink:href="#Q"/><use transform="matrix(0.05,0,0,0.05,33.05,0)" xlink:href="#R"/><use transform="matrix(0.05,0,0,0.05,42.949999999999996,0)" xlink:href="#W"/><use transform="matrix(0.05,0,0,0.05,55.849999999999994,0)" xlink:href="#aK"/><use transform="matrix(0.05,0,0,0.05,70.25,0)" xlink:href="#K"/><use transform="matrix(0.05,0,0,0.05,78.3,0)" xlink:href="#O"/></g><path fill="#333" d="M30-248c87 1 191-15 191 75 0 78-77 80-158 76V0H30v-248zm33 125c57 0 124 11 124-50 0-59-68-47-124-48v98" id="aL"/><g id="w"><use transform="matrix(0.05,0,0,0.05,0,0)" xlink:href="#aL"/><use transform="matrix(0.05,0,0,0.05,11.4,0)" xlink:href="#I"/><use transform="matrix(0.05,0,0,0.05,21.4,0)" xlink:href="#Z"/><use transform="matrix(0.05,0,0,0.05,30.399999999999995,0)" xlink:href="#F"/><use transform="matrix(0.05,0,0,0.05,38.4,0)" xlink:href="#M"/><use transform="matrix(0.05,0,0,0.05,48.4,0)" xlink:href="#R"/><use transform="matrix(0.05,0,0,0.05,58.29999999999999,0)" xlink:href="#S"/><use transform="matrix(0.05,0,0,0.05,68.35,0)" xlink:href="#M"/></g><path d="M160-131c35 5 61 23 61 61C221 17 115-2 30 0v-248c76 3 177-17 177 60 0 33-19 50-47 57zm-97-11c50-1 110 9 110-42 0-47-63-36-110-37v79zm0 115c55-2 124 14 124-45 0-56-70-42-124-44v89" id="aM"/><path d="M105-20c41 1 53-27 53-68 0-40-9-69-50-69s-54 27-54 69c0 40 12 68 51 68zM47-134c10-28 31-47 68-47 56 0 76 33 76 92 1 60-28 90-86 93C-9 9 1-201 72-238c29-15 73-21 110-26v28c-67 12-144 10-135 102" id="aN"/><path d="M16-82v-28h88v28H16" id="aO"/><path d="M217-194c52 0 64 44 64 98S268 2 217 4c-29 1-44-13-55-34l1 105h-30V-31C124-8 108 4 79 4 29 4 16-37 15-94c0-57 15-98 64-100 29 0 44 14 55 33l-1-100h30v101c10-23 24-34 54-34zM89-170c-37 1-41 36-41 75 0 37 3 74 40 74 39 0 45-35 45-76-1-39-6-73-44-73zM207-20c38 0 41-36 41-75 0-38-3-74-40-74-41 0-45 36-45 80 1 38 7 69 44 69" id="aP"/><path d="M165-267c8 67-110 75-125 20-2-7-4-13-4-20h29c1 23 13 35 36 35s34-13 36-35h28zM56-190L54-37l88-153h34V0h-30l2-153L59 0H25v-190h31" id="aQ"/><g id="x"><use transform="matrix(0.05,0,0,0.05,0,0)" xlink:href="#aM"/><use transform="matrix(0.05,0,0,0.05,12,0)" xlink:href="#av"/><use transform="matrix(0.05,0,0,0.05,21.8,0)" xlink:href="#aN"/><use transform="matrix(0.05,0,0,0.05,32.1,0)" xlink:href="#aO"/><use transform="matrix(0.05,0,0,0.05,38.050000000000004,0)" xlink:href="#ax"/><use transform="matrix(0.05,0,0,0.05,48.10000000000001,0)" xlink:href="#aw"/><use transform="matrix(0.05,0,0,0.05,58,0)" xlink:href="#aq"/><use transform="matrix(0.05,0,0,0.05,66,0)" xlink:href="#av"/><use transform="matrix(0.05,0,0,0.05,76,0)" xlink:href="#at"/><use transform="matrix(0.05,0,0,0.05,86,0)" xlink:href="#aP"/><use transform="matrix(0.05,0,0,0.05,100.8,0)" xlink:href="#av"/><use transform="matrix(0.05,0,0,0.05,110.80000000000001,0)" xlink:href="#aQ"/><use transform="matrix(0.05,0,0,0.05,120.84999999999998,0)" xlink:href="#aD"/><path d="M-.9 1.25h131.65v1.32H-.9z"/></g><path fill="#333" d="M127-220V0H93v-220H8v-28h204v28h-85" id="aR"/><path fill="#333" d="M100-194c63 0 86 42 84 106H49c0 40 14 67 53 68 26 1 43-12 49-29l28 8c-11 28-37 45-77 45C44 4 14-33 15-96c1-61 26-98 85-98zm52 81c6-60-76-77-97-28-3 7-6 17-6 28h103" id="aS"/><path fill="#333" d="M141 0L90-78 38 0H4l68-98-65-92h35l48 74 47-74h35l-64 92 68 98h-35" id="aT"/><g id="y"><use transform="matrix(0.05,0,0,0.05,0,0)" xlink:href="#aR"/><use transform="matrix(0.05,0,0,0.05,8.950000000000001,0)" xlink:href="#aS"/><use transform="matrix(0.05,0,0,0.05,18.950000000000003,0)" xlink:href="#aT"/><use transform="matrix(0.05,0,0,0.05,27.950000000000003,0)" xlink:href="#ae"/></g><g id="z"><use transform="matrix(0.05,0,0,0.05,0,0)" xlink:href="#U"/><use transform="matrix(0.05,0,0,0.05,12.9,0)" xlink:href="#M"/><use transform="matrix(0.05,0,0,0.05,22.9,0)" xlink:href="#H"/><use transform="matrix(0.05,0,0,0.05,32.9,0)" xlink:href="#M"/><use transform="matrix(0.05,0,0,0.05,42.5,0)" xlink:href="#N"/><use transform="matrix(0.05,0,0,0.05,53,0)" xlink:href="#I"/><use transform="matrix(0.05,0,0,0.05,62.6,0)" xlink:href="#V"/><use transform="matrix(0.05,0,0,0.05,71.95,0)" xlink:href="#I"/></g><g id="A"><use transform="matrix(0.05,0,0,0.05,0,0)" xlink:href="#L"/><use transform="matrix(0.05,0,0,0.05,9,0)" xlink:href="#J"/><use transform="matrix(0.05,0,0,0.05,18.35,0)" xlink:href="#M"/><use transform="matrix(0.05,0,0,0.05,27.950000000000003,0)" xlink:href="#N"/><use transform="matrix(0.05,0,0,0.05,38.45,0)" xlink:href="#O"/><use transform="matrix(0.05,0,0,0.05,48.45,0)" xlink:href="#P"/><use transform="matrix(0.05,0,0,0.05,60.800000000000004,0)" xlink:href="#Q"/><use transform="matrix(0.05,0,0,0.05,71.30000000000001,0)" xlink:href="#M"/><use transform="matrix(0.05,0,0,0.05,81.30000000000001,0)" xlink:href="#R"/><use transform="matrix(0.05,0,0,0.05,91.20000000000002,0)" xlink:href="#S"/><use transform="matrix(0.05,0,0,0.05,101.25000000000001,0)" xlink:href="#T"/></g><path fill="#333" d="M175-194c59 1 80 36 80 99 0 62-25 99-81 99-54 0-76-36-78-91H57V0H25v-190h32v80h39c4-56 30-84 79-84zm-1 174c42 1 48-34 48-75 0-42-6-75-46-75-41-1-47 34-47 75s6 74 45 75" id="aU"/><g id="B"><use transform="matrix(0.05,0,0,0.05,0,0)" xlink:href="#G"/><use transform="matrix(0.05,0,0,0.05,9.700000000000001,0)" xlink:href="#O"/><use transform="matrix(0.05,0,0,0.05,19.3,0)" xlink:href="#Q"/><use transform="matrix(0.05,0,0,0.05,29.8,0)" xlink:href="#ah"/><use transform="matrix(0.05,0,0,0.05,39.15,0)" xlink:href="#Y"/><use transform="matrix(0.05,0,0,0.05,47.199999999999996,0)" xlink:href="#O"/><use transform="matrix(0.05,0,0,0.05,57.19999999999999,0)" xlink:href="#J"/><use transform="matrix(0.05,0,0,0.05,66.55,0)" xlink:href="#I"/><use transform="matrix(0.05,0,0,0.05,76.14999999999999,0)" xlink:href="#F"/><use transform="matrix(0.05,0,0,0.05,84.14999999999999,0)" xlink:href="#M"/><use transform="matrix(0.05,0,0,0.05,93.55,0)" xlink:href="#Q"/><use transform="matrix(0.05,0,0,0.05,104.05000000000001,0)" xlink:href="#aU"/></g><g id="C"><use transform="matrix(0.05,0,0,0.05,0,0)" xlink:href="#U"/><use transform="matrix(0.05,0,0,0.05,12.9,0)" xlink:href="#M"/><use transform="matrix(0.05,0,0,0.05,22.9,0)" xlink:href="#H"/><use transform="matrix(0.05,0,0,0.05,32.9,0)" xlink:href="#M"/><use transform="matrix(0.05,0,0,0.05,42.9,0)" xlink:href="#Z"/><use transform="matrix(0.05,0,0,0.05,51.900000000000006,0)" xlink:href="#F"/><use transform="matrix(0.05,0,0,0.05,59.900000000000006,0)" xlink:href="#I"/><use transform="matrix(0.05,0,0,0.05,69.9,0)" xlink:href="#M"/><use transform="matrix(0.05,0,0,0.05,79.30000000000001,0)" xlink:href="#F"/></g><g id="D"><use transform="matrix(0.05,0,0,0.05,0,0)" xlink:href="#Z"/><use transform="matrix(0.05,0,0,0.05,9,0)" xlink:href="#J"/><use transform="matrix(0.05,0,0,0.05,18.35,0)" xlink:href="#M"/><use transform="matrix(0.05,0,0,0.05,27.75,0)" xlink:href="#F"/><use transform="matrix(0.05,0,0,0.05,35.95,0)" xlink:href="#S"/><use transform="matrix(0.05,0,0,0.05,46,0)" xlink:href="#F"/><use transform="matrix(0.05,0,0,0.05,54.2,0)" xlink:href="#ah"/></g></defs></g></svg>